<svg xmlns="http://www.w3.org/2000/svg" xmlns:xlink="http://www.w3.org/1999/xlink" width="500" zoomAndPan="magnify" viewBox="0 0 375 374.999991" height="500" preserveAspectRatio="xMidYMid meet" version="1.0"><defs><g/><clipPath id="56245abbe6"><path d="M 50 145 L 323 145 L 323 187 L 50 187 Z M 50 145 " clip-rule="nonzero"/></clipPath><clipPath id="fb92476624"><path d="M 50.167969 172.519531 L 321.03125 145.097656 L 322.46875 159.277344 L 51.601562 186.699219 Z M 50.167969 172.519531 " clip-rule="nonzero"/></clipPath><clipPath id="6cb1bcbf4c"><path d="M 56 232 L 248 232 L 248 269 L 56 269 Z M 56 232 " clip-rule="nonzero"/></clipPath><clipPath id="ef947dbd7a"><path d="M 56.207031 251.808594 L 245.738281 232.621094 L 247.476562 249.785156 L 57.945312 268.96875 Z M 56.207031 251.808594 " clip-rule="nonzero"/></clipPath><clipPath id="cc2ba9299d"><path d="M 118 181 L 317 181 L 317 219 L 118 219 Z M 118 181 " clip-rule="nonzero"/></clipPath><clipPath id="07fac88356"><path d="M 117.976562 201.410156 L 314.96875 181.46875 L 316.707031 198.632812 L 119.714844 218.574219 Z M 117.976562 201.410156 " clip-rule="nonzero"/></clipPath><clipPath id="ce05e4d108"><path d="M 37 100 L 322 100 L 322 146 L 37 146 Z M 37 100 " clip-rule="nonzero"/></clipPath><clipPath id="4f1e293ab5"><path d="M 37.5 128.683594 L 320.304688 100.050781 L 322.042969 117.214844 L 39.238281 145.84375 Z M 37.5 128.683594 " clip-rule="nonzero"/></clipPath></defs><g fill="#ffffff" fill-opacity="1"><g transform="translate(23.755868, 287.52133)"><g><path d="M 126.800781 -96.511719 C 115.9375 -110.925781 98.601562 -120.324219 79.171875 -120.324219 L 65.175781 -120.324219 C 57.027344 -120.324219 50.34375 -127.007812 50.34375 -135.15625 L 50.34375 -136.617188 C 50.34375 -144.765625 57.027344 -151.449219 65.175781 -151.449219 L 85.230469 -151.449219 C 108.417969 -151.449219 127.21875 -170.878906 127.21875 -196.15625 L 65.175781 -196.15625 C 32.378906 -196.15625 5.640625 -169.414062 5.640625 -136.617188 L 5.640625 -135.15625 C 5.640625 -121.789062 10.027344 -109.460938 17.546875 -99.433594 C 28.410156 -85.019531 45.539062 -75.621094 65.175781 -75.621094 L 79.171875 -75.621094 C 87.109375 -75.621094 94.003906 -68.9375 94.003906 -61 L 94.003906 -59.328125 C 94.003906 -51.390625 87.109375 -44.496094 79.171875 -44.496094 L 54.105469 -44.496094 C 30.917969 -44.496094 12.117188 -25.277344 12.117188 0 L 79.171875 0 C 111.96875 0 138.707031 -26.53125 138.707031 -59.328125 L 138.707031 -61 C 138.707031 -74.160156 134.320312 -86.484375 126.800781 -96.511719 Z M 126.800781 -96.511719 "/></g></g></g><g fill="#ffffff" fill-opacity="1"><g transform="translate(191.291397, 287.52133)"><g><path d="M 149.570312 -157.71875 C 146.226562 -166.492188 141.632812 -173.800781 135.367188 -179.652344 C 129.097656 -185.710938 121.789062 -190.097656 113.011719 -193.230469 C 104.238281 -196.363281 94.421875 -198.035156 83.558594 -198.035156 L 55.148438 -198.035156 C 33.839844 -198.035156 10.445312 -177.773438 10.445312 -152.914062 L 10.445312 0 C 36.558594 0 57.863281 -24.441406 57.863281 -54.730469 L 57.863281 -56.402344 L 81.261719 -56.402344 C 91.707031 -56.402344 101.523438 -58.074219 110.507812 -61 C 119.699219 -63.921875 127.425781 -68.519531 133.902344 -74.578125 C 140.378906 -80.632812 145.601562 -88.15625 149.152344 -96.929688 C 152.914062 -105.910156 154.585938 -116.148438 154.585938 -127.84375 L 154.585938 -128.261719 C 154.585938 -139.335938 152.914062 -149.152344 149.570312 -157.71875 Z M 107.375 -125.339844 C 107.375 -117.402344 104.867188 -111.132812 100.0625 -106.539062 C 95.257812 -101.734375 88.78125 -99.433594 80.214844 -99.433594 L 57.863281 -99.433594 L 57.863281 -152.078125 L 80.007812 -152.078125 C 88.574219 -152.078125 95.257812 -149.78125 100.0625 -145.394531 C 104.867188 -141.003906 107.375 -134.53125 107.375 -125.964844 Z M 107.375 -125.339844 "/></g></g></g><g clip-path="url(#56245abbe6)"><g clip-path="url(#fb92476624)"><path fill="#ffffff" d="M 50.25 172.511719 L 320.949219 145.109375 L 322.382812 159.285156 L 51.683594 186.6875 L 50.25 172.511719 " fill-opacity="1" fill-rule="nonzero"/></g></g><g clip-path="url(#6cb1bcbf4c)"><g clip-path="url(#ef947dbd7a)"><path fill="#ffffff" d="M 56.238281 251.804688 L 245.710938 232.625 L 247.445312 249.785156 L 57.976562 268.96875 L 56.238281 251.804688 " fill-opacity="1" fill-rule="nonzero"/></g></g><g clip-path="url(#cc2ba9299d)"><g clip-path="url(#07fac88356)"><path fill="#ffffff" d="M 118.007812 201.410156 L 314.941406 181.472656 L 316.675781 198.632812 L 119.746094 218.570312 L 118.007812 201.410156 " fill-opacity="1" fill-rule="nonzero"/></g></g><g clip-path="url(#ce05e4d108)"><g clip-path="url(#4f1e293ab5)"><path fill="#ffffff" d="M 37.546875 128.675781 L 320.257812 100.058594 L 321.996094 117.21875 L 39.285156 145.839844 L 37.546875 128.675781 " fill-opacity="1" fill-rule="nonzero"/></g></g></svg>